<?xml version="1.0" encoding="iso-8859-1"?>
<!-- Generator: Adobe Illustrator 19.0.0, SVG Export Plug-In . SVG Version: 6.00 Build 0)  -->
<svg version="1.1" id="Layer_1" xmlns="http://www.w3.org/2000/svg" xmlns:xlink="http://www.w3.org/1999/xlink" x="0px" y="0px"
	 viewBox="0 0 420 420" style="enable-background:new 0 0 420 420;" xml:space="preserve">
<g>
	<polygon points="245,115 245,0 60,0 60,265 360,265 360,115 	"/>
	<path d="M60,420h300V295H60V420z M298.019,326.475h14.76v50.939h30.96v12.96h-45.72V326.475z M216.119,326.475h16.021l16.56,33.39
		l16.65-33.39h15.93v63.899h-14.76v-38.25l-13.859,27.81h-7.92l-13.861-27.81v38.25h-14.76V326.475z M150.69,326.475h53.73v12.959
		h-19.44v50.94h-14.76v-50.94h-19.53V326.475z M84.001,326.475h14.76v24.75h25.471v-24.75h14.76v63.899h-14.76v-26.19H98.761v26.19
		h-14.76V326.475z"/>
	<polygon points="275,15 275,85 345,85 	"/>
</g>
<g>
</g>
<g>
</g>
<g>
</g>
<g>
</g>
<g>
</g>
<g>
</g>
<g>
</g>
<g>
</g>
<g>
</g>
<g>
</g>
<g>
</g>
<g>
</g>
<g>
</g>
<g>
</g>
<g>
</g>
</svg>
